<mxfile host="app.diagrams.net" modified="2022-10-03T19:07:33.911Z" agent="5.0 (Windows NT 10.0; Win64; x64) AppleWebKit/537.36 (KHTML, like Gecko) Chrome/72.0.3626.81 Safari/537.36" etag="aolu7naIcBgYBrBy_H_C" version="20.4.0" type="github">
  <diagram id="5f2H_LahNqMgy_ki65aN" name="Page-1">
    <mxGraphModel dx="658" dy="371" grid="1" gridSize="10" guides="1" tooltips="1" connect="1" arrows="1" fold="1" page="1" pageScale="1" pageWidth="850" pageHeight="1100" math="0" shadow="0">
      <root>
        <mxCell id="0" />
        <mxCell id="1" parent="0" />
        <mxCell id="vbyBboyBpk1uMVSNFhkl-1" value="Raw material" style="ellipse;whiteSpace=wrap;html=1;" vertex="1" parent="1">
          <mxGeometry x="238" y="72" width="100" height="40" as="geometry" />
        </mxCell>
        <mxCell id="vbyBboyBpk1uMVSNFhkl-2" value="manufacturing" style="ellipse;whiteSpace=wrap;html=1;" vertex="1" parent="1">
          <mxGeometry x="238" y="170" width="100" height="40" as="geometry" />
        </mxCell>
        <mxCell id="vbyBboyBpk1uMVSNFhkl-3" value="Stamping" style="ellipse;whiteSpace=wrap;html=1;" vertex="1" parent="1">
          <mxGeometry x="238" y="278" width="100" height="50" as="geometry" />
        </mxCell>
        <mxCell id="vbyBboyBpk1uMVSNFhkl-4" value="Welding" style="ellipse;whiteSpace=wrap;html=1;" vertex="1" parent="1">
          <mxGeometry x="238" y="400" width="100" height="50" as="geometry" />
        </mxCell>
        <mxCell id="vbyBboyBpk1uMVSNFhkl-5" value="Painting" style="ellipse;whiteSpace=wrap;html=1;" vertex="1" parent="1">
          <mxGeometry x="431" y="400" width="100" height="50" as="geometry" />
        </mxCell>
        <mxCell id="vbyBboyBpk1uMVSNFhkl-6" value="Assembly" style="ellipse;whiteSpace=wrap;html=1;" vertex="1" parent="1">
          <mxGeometry x="425" y="278" width="100" height="50" as="geometry" />
        </mxCell>
        <mxCell id="vbyBboyBpk1uMVSNFhkl-7" value="Final Inspection" style="ellipse;whiteSpace=wrap;html=1;" vertex="1" parent="1">
          <mxGeometry x="431" y="165" width="100" height="50" as="geometry" />
        </mxCell>
        <mxCell id="vbyBboyBpk1uMVSNFhkl-8" value="Testing" style="ellipse;whiteSpace=wrap;html=1;" vertex="1" parent="1">
          <mxGeometry x="431" y="72" width="100" height="50" as="geometry" />
        </mxCell>
        <mxCell id="vbyBboyBpk1uMVSNFhkl-10" style="edgeStyle=orthogonalEdgeStyle;rounded=0;orthogonalLoop=1;jettySize=auto;html=1;" edge="1" parent="1" source="vbyBboyBpk1uMVSNFhkl-9" target="vbyBboyBpk1uMVSNFhkl-1">
          <mxGeometry relative="1" as="geometry" />
        </mxCell>
        <mxCell id="vbyBboyBpk1uMVSNFhkl-9" value="Supplier" style="shape=umlActor;verticalLabelPosition=bottom;verticalAlign=top;html=1;outlineConnect=0;" vertex="1" parent="1">
          <mxGeometry x="120" y="1" width="30" height="60" as="geometry" />
        </mxCell>
        <mxCell id="vbyBboyBpk1uMVSNFhkl-13" value="" style="edgeStyle=orthogonalEdgeStyle;rounded=0;orthogonalLoop=1;jettySize=auto;html=1;" edge="1" parent="1" source="vbyBboyBpk1uMVSNFhkl-11" target="vbyBboyBpk1uMVSNFhkl-2">
          <mxGeometry relative="1" as="geometry" />
        </mxCell>
        <mxCell id="vbyBboyBpk1uMVSNFhkl-33" value="" style="edgeStyle=orthogonalEdgeStyle;rounded=0;orthogonalLoop=1;jettySize=auto;html=1;" edge="1" parent="1" source="vbyBboyBpk1uMVSNFhkl-11" target="vbyBboyBpk1uMVSNFhkl-2">
          <mxGeometry relative="1" as="geometry" />
        </mxCell>
        <mxCell id="vbyBboyBpk1uMVSNFhkl-11" value="engineer`" style="shape=umlActor;verticalLabelPosition=bottom;verticalAlign=top;html=1;outlineConnect=0;" vertex="1" parent="1">
          <mxGeometry x="110" y="160" width="30" height="60" as="geometry" />
        </mxCell>
        <mxCell id="vbyBboyBpk1uMVSNFhkl-17" value="" style="endArrow=classic;html=1;rounded=0;" edge="1" parent="1">
          <mxGeometry relative="1" as="geometry">
            <mxPoint x="290" y="112" as="sourcePoint" />
            <mxPoint x="290" y="170" as="targetPoint" />
          </mxGeometry>
        </mxCell>
        <mxCell id="vbyBboyBpk1uMVSNFhkl-18" value="include" style="edgeLabel;resizable=0;html=1;align=center;verticalAlign=middle;" connectable="0" vertex="1" parent="vbyBboyBpk1uMVSNFhkl-17">
          <mxGeometry relative="1" as="geometry">
            <mxPoint x="2" as="offset" />
          </mxGeometry>
        </mxCell>
        <mxCell id="vbyBboyBpk1uMVSNFhkl-20" value="" style="endArrow=classic;html=1;rounded=0;entryX=0.531;entryY=0;entryDx=0;entryDy=0;entryPerimeter=0;" edge="1" parent="1" target="vbyBboyBpk1uMVSNFhkl-3">
          <mxGeometry relative="1" as="geometry">
            <mxPoint x="291" y="210" as="sourcePoint" />
            <mxPoint x="291" y="270" as="targetPoint" />
          </mxGeometry>
        </mxCell>
        <mxCell id="vbyBboyBpk1uMVSNFhkl-21" value="include" style="edgeLabel;resizable=0;html=1;align=center;verticalAlign=middle;" connectable="0" vertex="1" parent="vbyBboyBpk1uMVSNFhkl-20">
          <mxGeometry relative="1" as="geometry">
            <mxPoint x="2" as="offset" />
          </mxGeometry>
        </mxCell>
        <mxCell id="vbyBboyBpk1uMVSNFhkl-22" value="" style="endArrow=classic;html=1;rounded=0;" edge="1" parent="1">
          <mxGeometry relative="1" as="geometry">
            <mxPoint x="287.58" y="328" as="sourcePoint" />
            <mxPoint x="287.58" y="398" as="targetPoint" />
            <Array as="points" />
          </mxGeometry>
        </mxCell>
        <mxCell id="vbyBboyBpk1uMVSNFhkl-23" value="include" style="edgeLabel;resizable=0;html=1;align=center;verticalAlign=middle;" connectable="0" vertex="1" parent="vbyBboyBpk1uMVSNFhkl-22">
          <mxGeometry relative="1" as="geometry">
            <mxPoint x="2" as="offset" />
          </mxGeometry>
        </mxCell>
        <mxCell id="vbyBboyBpk1uMVSNFhkl-24" value="" style="endArrow=classic;html=1;rounded=0;" edge="1" parent="1" target="vbyBboyBpk1uMVSNFhkl-7">
          <mxGeometry relative="1" as="geometry">
            <mxPoint x="480" y="277.52" as="sourcePoint" />
            <mxPoint x="565" y="277.52" as="targetPoint" />
          </mxGeometry>
        </mxCell>
        <mxCell id="vbyBboyBpk1uMVSNFhkl-25" value="include" style="edgeLabel;resizable=0;html=1;align=center;verticalAlign=middle;" connectable="0" vertex="1" parent="vbyBboyBpk1uMVSNFhkl-24">
          <mxGeometry relative="1" as="geometry">
            <mxPoint x="2" as="offset" />
          </mxGeometry>
        </mxCell>
        <mxCell id="vbyBboyBpk1uMVSNFhkl-26" value="" style="endArrow=classic;html=1;rounded=0;exitX=0.5;exitY=0;exitDx=0;exitDy=0;entryX=0.5;entryY=1;entryDx=0;entryDy=0;" edge="1" parent="1" source="vbyBboyBpk1uMVSNFhkl-7" target="vbyBboyBpk1uMVSNFhkl-8">
          <mxGeometry relative="1" as="geometry">
            <mxPoint x="490" y="182.51999999999998" as="sourcePoint" />
            <mxPoint x="490.7267800354863" y="119.99962675301191" as="targetPoint" />
          </mxGeometry>
        </mxCell>
        <mxCell id="vbyBboyBpk1uMVSNFhkl-27" value="include" style="edgeLabel;resizable=0;html=1;align=center;verticalAlign=middle;" connectable="0" vertex="1" parent="vbyBboyBpk1uMVSNFhkl-26">
          <mxGeometry relative="1" as="geometry">
            <mxPoint x="2" as="offset" />
          </mxGeometry>
        </mxCell>
        <mxCell id="vbyBboyBpk1uMVSNFhkl-28" value="" style="endArrow=classic;html=1;rounded=0;entryX=0;entryY=0.5;entryDx=0;entryDy=0;exitX=1;exitY=0.5;exitDx=0;exitDy=0;" edge="1" parent="1" source="vbyBboyBpk1uMVSNFhkl-4" target="vbyBboyBpk1uMVSNFhkl-5">
          <mxGeometry relative="1" as="geometry">
            <mxPoint x="337.99999999999994" y="430" as="sourcePoint" />
            <mxPoint x="337.99999999999994" y="500" as="targetPoint" />
            <Array as="points" />
          </mxGeometry>
        </mxCell>
        <mxCell id="vbyBboyBpk1uMVSNFhkl-29" value="include" style="edgeLabel;resizable=0;html=1;align=center;verticalAlign=middle;" connectable="0" vertex="1" parent="vbyBboyBpk1uMVSNFhkl-28">
          <mxGeometry relative="1" as="geometry">
            <mxPoint x="2" as="offset" />
          </mxGeometry>
        </mxCell>
        <mxCell id="vbyBboyBpk1uMVSNFhkl-30" value="" style="endArrow=classic;html=1;rounded=0;entryX=0.5;entryY=1;entryDx=0;entryDy=0;exitX=0.452;exitY=-0.02;exitDx=0;exitDy=0;exitPerimeter=0;" edge="1" parent="1" source="vbyBboyBpk1uMVSNFhkl-5" target="vbyBboyBpk1uMVSNFhkl-6">
          <mxGeometry relative="1" as="geometry">
            <mxPoint x="480.0000000000001" y="400" as="sourcePoint" />
            <mxPoint x="573" y="400" as="targetPoint" />
            <Array as="points" />
          </mxGeometry>
        </mxCell>
        <mxCell id="vbyBboyBpk1uMVSNFhkl-31" value="include" style="edgeLabel;resizable=0;html=1;align=center;verticalAlign=middle;" connectable="0" vertex="1" parent="vbyBboyBpk1uMVSNFhkl-30">
          <mxGeometry relative="1" as="geometry">
            <mxPoint x="2" as="offset" />
          </mxGeometry>
        </mxCell>
        <mxCell id="vbyBboyBpk1uMVSNFhkl-36" value="" style="edgeStyle=orthogonalEdgeStyle;rounded=0;orthogonalLoop=1;jettySize=auto;html=1;entryX=0;entryY=1;entryDx=0;entryDy=0;" edge="1" parent="1" target="vbyBboyBpk1uMVSNFhkl-1">
          <mxGeometry relative="1" as="geometry">
            <mxPoint x="130" y="160" as="sourcePoint" />
            <mxPoint x="228.0000000000001" y="160" as="targetPoint" />
          </mxGeometry>
        </mxCell>
        <mxCell id="vbyBboyBpk1uMVSNFhkl-37" value="" style="edgeStyle=orthogonalEdgeStyle;rounded=0;orthogonalLoop=1;jettySize=auto;html=1;entryX=0.223;entryY=0.02;entryDx=0;entryDy=0;entryPerimeter=0;" edge="1" parent="1" target="vbyBboyBpk1uMVSNFhkl-3">
          <mxGeometry relative="1" as="geometry">
            <mxPoint x="140" y="218.86" as="sourcePoint" />
            <mxPoint x="262.6446609406711" y="165.0021356237316" as="targetPoint" />
          </mxGeometry>
        </mxCell>
        <mxCell id="vbyBboyBpk1uMVSNFhkl-39" value="" style="edgeStyle=orthogonalEdgeStyle;rounded=0;orthogonalLoop=1;jettySize=auto;html=1;entryX=-0.01;entryY=0.613;entryDx=0;entryDy=0;entryPerimeter=0;" edge="1" parent="1" source="vbyBboyBpk1uMVSNFhkl-38" target="vbyBboyBpk1uMVSNFhkl-4">
          <mxGeometry relative="1" as="geometry">
            <mxPoint x="360" y="450" as="targetPoint" />
          </mxGeometry>
        </mxCell>
        <mxCell id="vbyBboyBpk1uMVSNFhkl-38" value="Welder" style="shape=umlActor;verticalLabelPosition=bottom;verticalAlign=top;html=1;outlineConnect=0;" vertex="1" parent="1">
          <mxGeometry x="120" y="400" width="30" height="60" as="geometry" />
        </mxCell>
        <mxCell id="vbyBboyBpk1uMVSNFhkl-40" value="" style="edgeStyle=orthogonalEdgeStyle;rounded=0;orthogonalLoop=1;jettySize=auto;html=1;entryX=0.752;entryY=1.013;entryDx=0;entryDy=0;entryPerimeter=0;" edge="1" parent="1" target="vbyBboyBpk1uMVSNFhkl-5">
          <mxGeometry relative="1" as="geometry">
            <mxPoint x="151" y="459.35000000000014" as="sourcePoint" />
            <mxPoint x="460" y="490" as="targetPoint" />
          </mxGeometry>
        </mxCell>
        <mxCell id="vbyBboyBpk1uMVSNFhkl-42" value="" style="edgeStyle=orthogonalEdgeStyle;rounded=0;orthogonalLoop=1;jettySize=auto;html=1;" edge="1" parent="1" source="vbyBboyBpk1uMVSNFhkl-41" target="vbyBboyBpk1uMVSNFhkl-8">
          <mxGeometry relative="1" as="geometry" />
        </mxCell>
        <mxCell id="vbyBboyBpk1uMVSNFhkl-41" value="Dealer" style="shape=umlActor;verticalLabelPosition=bottom;verticalAlign=top;html=1;outlineConnect=0;" vertex="1" parent="1">
          <mxGeometry x="640" y="20" width="30" height="60" as="geometry" />
        </mxCell>
        <mxCell id="vbyBboyBpk1uMVSNFhkl-43" value="" style="edgeStyle=orthogonalEdgeStyle;rounded=0;orthogonalLoop=1;jettySize=auto;html=1;entryX=1;entryY=0;entryDx=0;entryDy=0;" edge="1" parent="1" target="vbyBboyBpk1uMVSNFhkl-1">
          <mxGeometry relative="1" as="geometry">
            <mxPoint x="650" y="60" as="sourcePoint" />
            <mxPoint x="330" y="70" as="targetPoint" />
          </mxGeometry>
        </mxCell>
        <mxCell id="vbyBboyBpk1uMVSNFhkl-44" value="Exclude" style="edgeLabel;html=1;align=center;verticalAlign=middle;resizable=0;points=[];" vertex="1" connectable="0" parent="vbyBboyBpk1uMVSNFhkl-43">
          <mxGeometry x="0.2309" y="4" relative="1" as="geometry">
            <mxPoint as="offset" />
          </mxGeometry>
        </mxCell>
        <mxCell id="vbyBboyBpk1uMVSNFhkl-45" value="" style="swimlane;startSize=0;" vertex="1" parent="1">
          <mxGeometry x="200" width="370" height="500" as="geometry" />
        </mxCell>
        <mxCell id="vbyBboyBpk1uMVSNFhkl-46" value="executive engineer" style="shape=umlActor;verticalLabelPosition=bottom;verticalAlign=top;html=1;outlineConnect=0;" vertex="1" parent="1">
          <mxGeometry x="640" y="273" width="30" height="60" as="geometry" />
        </mxCell>
        <mxCell id="vbyBboyBpk1uMVSNFhkl-47" value="" style="endArrow=classic;html=1;rounded=0;entryX=1;entryY=0.5;entryDx=0;entryDy=0;" edge="1" parent="1" source="vbyBboyBpk1uMVSNFhkl-46" target="vbyBboyBpk1uMVSNFhkl-6">
          <mxGeometry width="50" height="50" relative="1" as="geometry">
            <mxPoint x="380" y="310" as="sourcePoint" />
            <mxPoint x="430" y="260" as="targetPoint" />
            <Array as="points" />
          </mxGeometry>
        </mxCell>
        <mxCell id="vbyBboyBpk1uMVSNFhkl-48" value="" style="endArrow=classic;html=1;rounded=0;entryX=1;entryY=1;entryDx=0;entryDy=0;" edge="1" parent="1" target="vbyBboyBpk1uMVSNFhkl-7">
          <mxGeometry width="50" height="50" relative="1" as="geometry">
            <mxPoint x="646" y="290" as="sourcePoint" />
            <mxPoint x="531" y="290" as="targetPoint" />
            <Array as="points" />
          </mxGeometry>
        </mxCell>
      </root>
    </mxGraphModel>
  </diagram>
</mxfile>
